<svg id="eh6siodGFvJ1" xmlns="http://www.w3.org/2000/svg" xmlns:xlink="http://www.w3.org/1999/xlink" viewBox="0 0 300 300" shape-rendering="geometricPrecision" text-rendering="geometricPrecision" style="background-color:transparent"><defs><radialGradient id="eh6siodGFvJ2-fill" cx="0" cy="0" r="0.549157" spreadMethod="pad" gradientUnits="objectBoundingBox" gradientTransform="matrix(-0.002284 0.999997 -1.34755 -0.003078 1.00602 0.5)"><stop id="eh6siodGFvJ2-fill-0" offset="99%" stop-color="#404040"/><stop id="eh6siodGFvJ2-fill-1" offset="100%" stop-color="#000"/></radialGradient><radialGradient id="eh6siodGFvJ3-fill" cx="0" cy="0" r="0.549157" spreadMethod="pad" gradientUnits="objectBoundingBox" gradientTransform="matrix(-0.002284 0.999997 -1.34755 -0.003078 1.00602 0.5)"><stop id="eh6siodGFvJ3-fill-0" offset="99%" stop-color="#404040"/><stop id="eh6siodGFvJ3-fill-1" offset="100%" stop-color="#000"/></radialGradient></defs><path d="M110.748349,149.999999v20.946441L80.667645,149.999998v51.027148h-30.81438l.537877-101.489954l30.276503.242705l30.080704,50.220102Z" transform="translate(75 0.000002)" fill="url(#eh6siodGFvJ2-fill)" stroke-width="0.6"/><path d="M110.748349,149.999999v20.946441L80.667645,149.999998v51.027148h-30.81438v-101.247249h30.81438l30.080704,50.220102Z" transform="matrix(-1 0 0 1 295.868 0.000002)" fill="url(#eh6siodGFvJ3-fill)" stroke-width="0.6"/><path d="M88.844407,108.064212v57.293754c1.603825,17.412926-21.279346,14.940303-28.951128,10.04602-5.643802-3.600515-14.834849-12.8679-8.046121-25.000462c3.809536-6.808261,13.259696-2.981642,13.259696-2.981642s6.658169,2.066577,4.979299,2.981641v-.403524-34.536638l18.758254-7.399149Z" transform="translate(8.000002 0.000001)" stroke-width="0.6"/><path d="M77.177316,147.825407l32.735699.000001v17.936083h-32.735699v-17.936084Z" transform="translate(18.422872 3.738108)" stroke-width="0.6"/><ellipse rx="12.5" ry="12.5" transform="translate(137.891142 81.232713)" stroke="#000"/><path d="M50.474588,99.779899h73.916552l.462124,21.144462c-6.456202-14.829715-53.143209,11.572292-67.318596,0-4.913847-4.011493-7.06008-21.144462-7.06008-21.144462Z" transform="translate(1.000002 0)" stroke="#000" stroke-width="0.6"/></svg>
